<svg width="1089" height="1089" viewBox="0 0 1089 1089" fill="none" xmlns="http://www.w3.org/2000/svg">
<path d="M0 0H1089V1089H0V0Z" fill="#EDE6D6"/>
<path d="M895.848 579.92C895.848 582.584 896.603 584.449 898.112 585.515C899.711 586.58 902.108 587.424 905.305 588.046V590.976H875.068V588.046C878.354 587.424 880.752 586.58 882.261 585.515C883.859 584.449 884.658 582.584 884.658 579.92V512.384C884.658 509.987 884.082 508.211 882.927 507.056C881.773 505.902 879.908 505.191 877.332 504.925L875.068 504.658V501.994L893.45 496.666H895.848V579.92ZM926.885 545.286C926.885 540.313 925.731 536.628 923.421 534.23C921.113 531.744 917.916 530.5 913.831 530.5C910.545 530.5 907.393 531.433 904.373 533.298C901.354 535.163 898.29 538.138 895.182 542.223L893.85 540.358C897.846 534.053 901.798 529.479 905.705 526.638C909.613 523.707 913.83 522.242 918.359 522.242C922.089 522.242 925.42 523.085 928.35 524.773C931.37 526.46 933.768 528.991 935.543 532.365C937.32 535.651 938.207 539.692 938.207 544.487V579.92C938.207 582.584 938.963 584.449 940.472 585.515C942.07 586.58 944.468 587.424 947.665 588.046V590.976H917.693V588.046C920.802 587.424 923.111 586.58 924.62 585.515C926.13 584.449 926.885 582.584 926.885 579.92V545.286Z" fill="#231F20"/>
<path d="M845.486 592.841C839.18 592.841 833.719 591.376 829.101 588.445C824.484 585.426 820.976 581.296 818.578 576.057C816.18 570.817 814.981 564.956 814.981 558.474C814.981 551.902 816.269 545.864 818.844 540.358C821.508 534.852 825.238 530.456 830.034 527.17C834.829 523.885 840.291 522.242 846.418 522.242C850.503 522.242 854.189 522.952 857.474 524.373C860.849 525.794 863.557 527.703 865.6 530.101C867.643 532.499 868.975 535.029 869.596 537.694L858.939 542.889C857.962 538.093 856.275 534.275 853.878 531.433C851.48 528.591 848.416 527.17 844.686 527.17C839.003 527.17 834.474 529.657 831.099 534.63C827.814 539.603 826.171 545.908 826.171 553.545C826.171 562.603 828.214 569.885 832.298 575.391C836.472 580.897 842.377 583.65 850.015 583.65C853.744 583.65 857.429 582.451 861.071 580.053C864.712 577.567 867.553 574.325 869.596 570.329L871.994 571.395C869.774 578.144 866.266 583.428 861.47 587.246C856.763 590.976 851.435 592.841 845.486 592.841Z" fill="#231F20"/>
<path d="M783.7 544.354C786.009 536.983 788.895 531.477 792.359 527.836C795.822 524.195 799.685 522.286 803.947 522.108C805.191 522.02 806.523 522.064 807.944 522.242C809.454 522.419 810.608 522.641 811.407 522.908L809.809 535.163C808.565 534.186 807.1 533.475 805.413 533.031C803.814 532.587 802.304 532.41 800.884 532.498C797.332 532.676 794.045 534.097 791.026 536.761C788.008 539.425 785.653 543.066 783.967 547.684L783.7 544.354ZM763.586 588.045C767.316 587.424 769.847 586.491 771.179 585.248C772.511 584.005 773.177 582.051 773.177 579.387V538.892C773.177 536.14 772.599 534.097 771.445 532.765C770.291 531.433 768.16 530.678 765.051 530.5L763.586 530.367V527.57L781.968 522.242H784.366V579.387C784.366 582.051 785.299 584.005 787.163 585.248C789.028 586.403 792.447 587.335 797.42 588.045V590.976H763.586V588.045Z" fill="#231F20"/>
<path d="M705.262 569.796C705.262 574.769 706.416 578.499 708.725 580.986C711.035 583.383 714.232 584.582 718.316 584.582C721.602 584.582 724.755 583.694 727.774 581.918C730.793 580.053 733.901 577.034 737.098 572.86L738.43 574.725C734.434 581.03 730.438 585.648 726.442 588.578C722.534 591.42 718.361 592.841 713.92 592.841C710.191 592.841 706.816 591.997 703.797 590.31C700.778 588.623 698.38 586.136 696.604 582.85C694.917 579.476 694.073 575.391 694.073 570.595V538.892C694.073 536.14 693.452 534.097 692.208 532.765C691.054 531.344 688.966 530.589 685.947 530.5L684.615 530.367V527.57L702.864 522.242H705.262V569.796ZM747.622 575.924C747.622 578.765 748.199 580.897 749.353 582.318C750.507 583.65 752.595 584.316 755.614 584.316H757.212V587.246L738.83 592.841H736.299V538.892C736.299 536.14 735.678 534.097 734.434 532.765C733.28 531.344 731.192 530.589 728.174 530.5L726.841 530.367V527.57L745.091 522.242H747.622V575.924Z" fill="#231F20"/>
<path d="M632.297 579.92C632.297 582.584 633.053 584.449 634.561 585.515C636.16 586.58 638.558 587.424 641.755 588.046V590.976H611.517V588.046C614.803 587.424 617.201 586.58 618.71 585.515C620.308 584.449 621.108 582.584 621.108 579.92V512.384C621.108 509.987 620.531 508.211 619.376 507.056C618.222 505.902 616.357 505.191 613.781 504.925L611.517 504.658V501.994L629.899 496.666H632.297V579.92ZM663.334 545.286C663.334 540.313 662.18 536.628 659.871 534.23C657.562 531.744 654.366 530.5 650.28 530.5C646.994 530.5 643.842 531.433 640.822 533.298C637.803 535.163 634.739 538.138 631.631 542.223L630.299 540.358C634.295 534.053 638.248 529.479 642.154 526.638C646.062 523.707 650.28 522.242 654.809 522.242C658.539 522.242 661.869 523.085 664.799 524.773C667.819 526.46 670.217 528.991 671.992 532.365C673.769 535.651 674.656 539.692 674.656 544.487V579.92C674.656 582.584 675.412 584.449 676.921 585.515C678.519 586.58 680.917 587.424 684.114 588.046V590.976H654.143V588.046C657.251 587.424 659.561 586.58 661.069 585.515C662.579 584.449 663.334 582.584 663.334 579.92V545.286Z" fill="#231F20"/>
<path d="M573.232 582.85C579.804 582.85 585.708 580.941 590.948 577.123C596.188 573.215 600.051 568.02 602.537 561.537L605.601 562.603C602.848 571.661 598.23 578.987 591.747 584.582C585.265 590.088 577.716 592.841 569.102 592.841C561.022 592.841 553.739 590.932 547.257 587.113C540.774 583.294 535.668 578.011 531.938 571.262C528.297 564.512 526.388 556.92 526.21 548.483C526.122 539.336 527.853 531.078 531.405 523.707C534.957 516.336 540.019 510.564 546.591 506.39C553.163 502.216 560.755 500.129 569.369 500.129C574.875 500.129 579.892 500.973 584.421 502.66C588.95 504.348 592.725 506.612 595.744 509.454C598.852 512.296 600.939 515.493 602.004 519.045L589.616 525.172C588.018 519.222 585.354 514.471 581.624 510.919C577.983 507.278 573.365 505.458 567.77 505.458C561.821 505.458 556.714 506.923 552.452 509.854C548.278 512.784 545.081 517.047 542.861 522.641C540.641 528.236 539.531 534.896 539.531 542.622C539.531 550.348 540.951 557.275 543.793 563.402C546.724 569.441 550.72 574.192 555.782 577.655C560.932 581.119 566.749 582.85 573.232 582.85Z" fill="#231F20"/>
<path d="M467.606 592.841C462.1 592.841 456.95 591.687 452.154 589.378C447.359 587.069 443.629 583.872 440.965 579.787L451.222 572.727C452.731 577.433 455.04 581.208 458.149 584.049C461.346 586.802 464.897 588.179 468.805 588.179C472.89 588.179 476.265 587.024 478.929 584.715C481.593 582.406 482.88 579.565 482.792 576.19C482.702 570.684 479.462 566.644 473.068 564.068L460.147 559.14C454.995 557.186 450.999 554.877 448.158 552.213C445.316 549.549 443.851 545.952 443.762 541.423C443.673 535.562 445.76 530.9 450.023 527.437C454.286 523.973 459.924 522.242 466.94 522.242C473.511 522.242 478.839 523.307 482.925 525.439C487.01 527.57 489.985 530.056 491.85 532.898L481.992 539.692C480.571 535.695 478.484 532.543 475.732 530.234C472.978 527.925 469.781 526.771 466.141 526.771C462.233 526.771 459.081 527.748 456.683 529.701C454.374 531.566 453.22 534.097 453.22 537.294C453.22 540.136 454.108 542.4 455.884 544.087C457.749 545.775 460.457 547.284 464.01 548.616L477.33 553.678C481.948 555.454 485.544 557.808 488.12 560.738C490.784 563.58 492.16 567.31 492.249 571.928C492.249 575.746 491.227 579.254 489.186 582.451C487.231 585.648 484.39 588.179 480.66 590.044C476.931 591.908 472.579 592.841 467.606 592.841Z" fill="#231F20"/>
<path d="M438.243 528.769H420.527V590.976H409.47V528.769H397.882V524.106H409.47V510.519L418.262 505.324H420.527V524.106H438.243V528.769Z" fill="#231F20"/>
<path d="M346.372 579.92C346.372 582.584 347.128 584.449 348.637 585.515C350.235 586.58 352.633 587.424 355.83 588.045V590.976H325.592V588.045C328.878 587.424 331.276 586.58 332.785 585.515C334.384 584.449 335.183 582.584 335.183 579.92V538.892C335.183 536.14 334.562 534.097 333.318 532.765C332.164 531.344 330.077 530.589 327.057 530.5L325.592 530.367V527.57L343.974 522.242H346.372V579.92ZM377.409 545.286C377.409 540.313 376.255 536.628 373.946 534.23C371.638 531.744 368.441 530.5 364.355 530.5C361.07 530.5 357.917 531.433 354.897 533.298C351.878 535.163 348.815 538.138 345.706 542.223L344.374 540.358C348.37 534.053 352.323 529.479 356.229 526.637C360.137 523.707 364.355 522.242 368.884 522.242C372.614 522.242 375.944 523.085 378.874 524.773C381.895 526.46 384.292 528.991 386.068 532.365C387.844 535.651 388.732 539.692 388.732 544.487V579.92C388.732 582.584 389.487 584.449 390.996 585.515C392.595 586.58 394.992 587.424 398.189 588.045V590.976H368.351V588.045C371.371 587.424 373.636 586.58 375.145 585.515C376.655 584.449 377.409 582.584 377.409 579.92V545.286Z" fill="#231F20"/>
<path d="M309.428 579.92C309.428 582.584 310.184 584.449 311.693 585.515C313.291 586.58 315.689 587.424 318.886 588.045V590.976H288.648V588.045C291.935 587.424 294.332 586.58 295.841 585.515C297.44 584.449 298.239 582.584 298.239 579.92V538.892C298.239 536.14 297.618 534.097 296.374 532.765C295.22 531.344 293.133 530.589 290.113 530.5L288.648 530.367V527.57L307.031 522.242H309.428V579.92ZM303.967 512.118C301.569 512.118 299.571 511.363 297.973 509.853C296.464 508.344 295.708 506.39 295.708 503.992C295.708 501.772 296.464 499.907 297.973 498.398C299.571 496.799 301.569 496 303.967 496C306.276 496 308.186 496.799 309.695 498.398C311.205 499.907 311.959 501.772 311.959 503.992C311.959 506.39 311.205 508.344 309.695 509.853C308.186 511.363 306.276 512.118 303.967 512.118Z" fill="#231F20"/>
<path d="M240.649 592.841C235.232 592.841 230.437 591.376 226.263 588.445C222.089 585.426 218.892 581.43 216.672 576.457C214.452 571.395 213.342 565.845 213.342 559.806C213.342 552.169 214.807 545.508 217.738 539.825C220.757 534.053 224.753 529.701 229.727 526.771C234.788 523.751 240.25 522.242 246.111 522.242C250.285 522.242 253.793 522.996 256.635 524.506C259.476 526.016 261.918 528.058 263.961 530.634L268.223 524.107H272.753V575.924C272.753 578.943 273.285 581.119 274.351 582.451C275.505 583.694 277.503 584.316 280.344 584.316H282.342V587.246L263.961 592.841H261.429V579.787C259.476 583.516 256.678 586.625 253.038 589.111C249.397 591.598 245.267 592.841 240.649 592.841ZM225.331 554.744C225.331 559.895 225.997 564.779 227.329 569.397C228.75 574.014 230.925 577.789 233.856 580.719C236.875 583.65 240.561 585.115 244.912 585.115C248.375 585.115 251.661 584.227 254.77 582.451C257.877 580.675 260.097 578.41 261.429 575.657V547.817C261.429 544.709 260.808 541.557 259.564 538.36C258.322 535.163 256.368 532.498 253.704 530.367C251.04 528.147 247.665 527.037 243.58 527.037C240.117 527.037 236.964 528.236 234.122 530.634C231.369 532.943 229.194 536.228 227.595 540.491C226.086 544.665 225.331 549.416 225.331 554.744Z" fill="#231F20"/>
<path d="M175.234 592.841C168.218 592.841 161.78 591.687 155.919 589.378C150.058 586.98 145.085 583.561 141 579.121L152.189 568.198C154.232 574.059 157.384 578.765 161.647 582.318C165.91 585.781 170.572 587.513 175.634 587.513C181.584 587.513 186.201 585.959 189.487 582.85C192.773 579.654 194.416 575.657 194.416 570.862C194.416 567.221 193.394 564.157 191.352 561.671C189.309 559.095 186.779 557.053 183.759 555.543C180.74 553.945 176.61 552.124 171.371 550.082C165.599 547.773 160.937 545.686 157.384 543.821C153.832 541.867 150.813 539.292 148.326 536.095C145.929 532.809 144.73 528.636 144.73 523.574C144.73 519.045 145.84 515.004 148.06 511.452C150.28 507.9 153.61 505.147 158.05 503.193C162.491 501.151 167.863 500.129 174.168 500.129C180.651 500.129 186.556 501.328 191.885 503.726C197.213 506.035 201.298 509.143 204.14 513.05L192.551 521.709C190.952 516.825 188.333 512.917 184.692 509.987C181.139 506.967 177.099 505.458 172.57 505.458C167.153 505.458 162.935 506.745 159.915 509.321C156.985 511.896 155.519 515.226 155.519 519.311C155.519 522.863 156.541 525.838 158.583 528.236C160.714 530.634 163.29 532.632 166.309 534.23C169.329 535.829 173.458 537.694 178.697 539.825C184.647 542.134 189.443 544.265 193.084 546.219C196.725 548.172 199.788 550.792 202.275 554.078C204.85 557.364 206.138 561.449 206.138 566.333C206.138 571.572 204.761 576.19 202.008 580.186C199.344 584.183 195.659 587.291 190.952 589.511C186.246 591.731 181.006 592.841 175.234 592.841Z" fill="#231F20"/>
</svg>