<svg width="236" height="236" viewBox="0 0 236 236" fill="none" xmlns="http://www.w3.org/2000/svg">
<path d="M118 0C183.17 0 236 52.8304 236 118C236 183.17 183.17 236 118 236C52.8304 236 0 183.17 0 118C0 52.8304 52.8304 0 118 0ZM118.676 52.9561C109.771 52.9561 102.182 54.3992 95.9111 57.2852C89.6398 60.0457 84.9364 63.9359 81.8008 68.9551C78.6653 73.9741 77.0968 79.6828 77.0967 86.082C77.0967 93.2343 78.7903 99.1327 82.1768 103.775C85.6886 108.292 89.953 111.931 94.9697 114.691C99.9868 117.326 106.572 120.276 114.725 123.538C122.125 126.424 127.957 128.996 132.222 131.255C136.486 133.388 140.061 136.274 142.945 139.913C145.83 143.426 147.272 147.756 147.272 152.9C147.272 159.676 144.952 165.323 140.312 169.84C135.671 174.232 129.149 176.428 120.745 176.428C113.596 176.428 107.011 173.981 100.99 169.087C94.9699 164.068 90.5176 157.417 87.6328 149.136L71.8291 164.569C77.5987 170.843 84.6223 175.675 92.9004 179.062C101.178 182.325 110.272 183.956 120.181 183.956C128.333 183.956 135.733 182.388 142.381 179.251C149.028 176.114 154.234 171.722 157.997 166.075C161.885 160.429 163.829 153.904 163.829 146.501C163.829 139.6 162.01 133.827 158.373 129.185C154.861 124.542 150.534 120.841 145.392 118.08C140.249 115.32 133.476 112.307 125.072 109.045C117.672 106.033 111.84 103.398 107.575 101.14C103.311 98.8811 99.6732 96.0578 96.6631 92.6699C93.7784 89.282 92.336 85.0786 92.3359 80.0596C92.3359 74.2875 94.4059 69.5822 98.5449 65.9434C102.809 62.3045 108.767 60.4844 116.418 60.4844C122.815 60.4844 128.522 62.6175 133.539 66.8838C138.681 71.0245 142.381 76.546 144.639 83.4473L161.007 71.2129C156.993 65.692 151.224 61.3005 143.698 58.0381C136.173 54.6502 127.832 52.9561 118.676 52.9561Z" fill="#231F20"/>
</svg>
